HIERARCHY
ROOT Hips
{
   OFFSET 0.00000 0.00000 0.00000
   CHANNELS 6 Xposition Yposition Zposition Zrotation Xrotation Yrotation
   JOINT Spine
   {
      OFFSET 0.000000 15.457650 0.000000
      CHANNELS 3 Zrotation Xrotation Yrotation
      JOINT Spine1
      {
         OFFSET -0.000000 33.354620 0.165958
         CHANNELS 3 Zrotation Xrotation Yrotation
         JOINT HEad
         {
            OFFSET 0.000000 11.354408 0.014742
            CHANNELS 3 Zrotation Xrotation Yrotation
            End Site
            {
               OFFSET -0.377000 16.606459 3.268135
            }
         }
         JOINT LeftShoulder1
         {
            OFFSET 11.687000 -0.470925 -0.286000
            CHANNELS 3 Zrotation Xrotation Yrotation
            JOINT LeftArm
            {
               OFFSET 13.367510 -0.004394 0.418756
               CHANNELS 3 Zrotation Xrotation Yrotation
               JOINT LeftForeArm
               {
                  OFFSET 42.596969 0.128882 -1.851642
                  CHANNELS 3 Zrotation Xrotation Yrotation
                  JOINT LeftHand
                  {
                     OFFSET 35.833589 0.110968 1.328808
                     CHANNELS 3 Zrotation Xrotation Yrotation
                     End Site
                     {
                        OFFSET 21.767590 -0.780000 1.953783
                     }
                  }
               }
            }
         }
         JOINT RightShoulder
         {
            OFFSET -11.687000 -0.470925 -0.286000
            CHANNELS 3 Zrotation Xrotation Yrotation
            JOINT RightArm
            {
               OFFSET -13.367510 -0.004394 0.418756
               CHANNELS 3 Zrotation Xrotation Yrotation
               JOINT RightForeArm
               {
                  OFFSET -42.766227 0.128882 -1.851642
                  CHANNELS 3 Zrotation Xrotation Yrotation
                  JOINT RightHand
                  {
                     OFFSET -35.739729 0.110968 1.328808
                     CHANNELS 3 Zrotation Xrotation Yrotation
                     End Site
                     {
                        OFFSET -21.620562 -0.780000 1.953783
                     }
                  }
               }
            }
         }
      }
   }
   JOINT LeftUpLeg
   {
      OFFSET 11.629540 -11.267191 0.132145
      CHANNELS 3 Zrotation Xrotation Yrotation
      JOINT LeftLeg
      {
         OFFSET 0.000000 -57.749504 1.784510
         CHANNELS 3 Zrotation Xrotation Yrotation
         JOINT LeftFoot
         {
            OFFSET -0.329615 -54.720115 -1.898767
            CHANNELS 3 Zrotation Xrotation Yrotation
            JOINT LeftToes
            {
               OFFSET -0.052000 -5.739617 11.048829
               CHANNELS 3 Zrotation Xrotation Yrotation
               End Site
               {
                  OFFSET 0.104000 -0.061685 12.713727
               }
            }
         }
      }
   }
   JOINT RightUpLeg
   {
      OFFSET -11.629540 -11.267191 0.132145
      CHANNELS 3 Zrotation Xrotation Yrotation
      JOINT RightLeg
      {
         OFFSET 0.000000 -57.749504 1.784510
         CHANNELS 3 Zrotation Xrotation Yrotation
         JOINT RightFoot
         {
            OFFSET 0.329615 -54.720115 -1.898767
            CHANNELS 3 Zrotation Xrotation Yrotation
            JOINT RightToes
            {
               OFFSET 0.052000 -5.739617 11.048829
               CHANNELS 3 Zrotation Xrotation Yrotation
               End Site
               {
                  OFFSET -0.104000 -0.178685 12.713727
               }
            }
         }
      }
   }
}
MOTION
Frames: 16
Frame Time: 0.016670
34.855868 114.073103 -119.950312 21.124609 -32.422266 20.318515 -15.007107 50.756686 149.865852 0.194859 2.975025 -139.101693 6.057657 54.706868 -18.238789 46.872901 77.075044 -88.408138 -86.489285 58.251938 -223.132322 5.540547 142.475875 -56.198397 -40.981787 -36.860690 -66.590096 347.845798 264.478612 305.145586 684.454951 300.112392 612.657969 15.228410 219.316596 79.712269 -16.854373 -39.374155 33.583938 -3.842786 18.988003 11.476103 11.992794 18.703418 43.673223 -25.606876 36.468596 -33.487069 -44.165335 24.478519 -42.230206 -7.828087 50.464962 31.985048 21.863845 17.712695 -12.678233 -73.499980 -8.835206 26.033309 40.704366 54.065677 -69.664487
34.089961 111.691244 -120.184572 21.824562 -31.484208 23.076940 -23.095928 50.310395 150.742384 -1.605193 0.601998 -138.234354 6.009555 51.056255 -17.690045 47.990214 74.399188 -87.911433 -86.701752 57.847474 -222.376466 -1.303095 138.287712 -51.367018 -43.059507 -33.997680 -67.068202 347.259248 266.396120 306.405428 683.932742 300.485047 610.800923 6.261120 213.747136 78.745640 -22.638923 -36.922384 35.017198 -5.057802 15.642889 9.255685 14.311770 22.039999 42.498400 -24.002046 34.240817 -33.936871 -48.888831 23.023751 -43.758539 -6.028880 48.482722 27.662671 24.675571 20.790189 -14.194222 -72.402833 -8.174789 27.069713 40.273353 50.120697 -70.015101
32.973108 109.134014 -120.882261 22.321487 -30.189047 21.822359 -27.211750 51.399185 153.489281 2.758793 0.598328 -135.945299 5.896382 49.845901 -16.473872 53.045131 70.433314 -82.899912 -86.467804 56.998796 -226.321679 -2.982717 136.664394 -46.928997 -45.087230 -31.798943 -64.071723 349.237599 268.731033 304.126276 675.679742 296.648394 604.067066 2.691047 212.688594 80.255242 -20.462671 -35.120580 36.149135 -6.669122 11.192348 8.634529 16.235102 25.794962 39.431403 -23.026383 30.631141 -34.065978 -53.690707 21.076671 -44.854863 -8.166197 45.877411 23.534214 24.552092 20.932107 -15.448433 -68.978613 -3.473606 31.723138 38.795082 61.073018 -75.649078
31.650607 106.258896 -121.710461 23.122916 -30.264572 25.388436 -30.705081 55.451034 156.583521 6.963699 -0.925853 -134.327841 5.804056 47.191676 -14.423473 56.938745 65.810491 -81.729074 -86.208974 59.516718 -226.229048 -3.611657 138.433755 -48.233078 -38.142467 -45.611126 -58.771387 352.086252 268.079024 300.347187 664.490253 294.517948 594.139359 -1.087510 210.960201 80.686240 -20.627253 -30.838478 37.980708 -7.150527 8.517207 8.658738 19.673831 28.241734 33.872544 -22.678221 26.078354 -33.888540 -58.714143 18.877842 -45.542585 -7.568849 44.188578 17.437943 29.362188 24.896190 -15.968789 -69.577778 -3.617150 30.258650 37.529195 47.448576 -76.528752
30.183551 102.639244 -122.865913 21.320675 -27.362182 26.448560 -34.449067 62.338440 160.057410 7.558226 -2.966460 -133.667266 4.760122 42.814303 -12.316487 54.129895 65.326566 -76.734293 -76.974668 66.391624 -232.190696 -11.496841 139.857426 -49.004066 -45.676788 -31.298976 -72.197613 354.840540 270.988985 301.896793 654.232511 292.733329 579.675040 -1.823717 210.008072 83.011899 -17.763811 -39.430716 27.926325 -6.578930 3.693329 10.860234 23.395377 27.000998 25.782933 -23.634811 19.948148 -32.876016 -64.719205 15.847724 -46.796741 -6.831281 38.968067 8.186817 32.271302 28.744117 -13.836392 -69.138822 -2.323792 29.534435 29.785331 58.822354 -76.123073
28.712096 98.918103 -124.074858 17.190842 -24.268844 25.416932 -44.090753 73.087307 166.237351 7.678120 -0.397672 -131.977450 3.620991 36.582346 -10.551852 51.696797 55.789859 -76.158447 -73.830943 66.735115 -238.185717 -18.002898 140.089926 -51.773876 -37.533935 -47.908159 -63.287194 359.491981 269.034430 294.805827 639.533780 290.819729 560.003167 8.234520 205.593571 89.339127 -19.660908 -23.640166 39.641899 -5.416815 -3.053821 17.207502 29.531826 25.015983 15.417105 -24.581762 13.860587 -29.102743 -71.211361 11.822903 -47.617036 -3.281250 32.437753 -3.659796 24.936498 39.354765 2.147418 -68.630328 -1.343567 26.911307 24.564528 46.703457 -84.938108
27.162361 95.228680 -125.442637 18.150727 -25.598635 20.547202 -51.167474 77.031632 175.397400 13.147186 4.609712 -127.708241 4.261734 29.920672 -9.402123 47.217630 53.551842 -74.742719 -73.405293 66.419266 -238.941546 -20.310356 141.185064 -52.986637 -41.913002 -38.060768 -72.402635 357.443743 265.388448 289.764464 620.167735 286.334617 540.854758 7.248859 209.016233 83.885276 -17.467872 -39.134802 27.727462 -4.659855 -4.977931 25.005206 34.341003 25.805616 1.920324 -24.322811 10.042493 -25.540097 -76.791352 8.367086 -49.349367 2.012298 22.529618 -5.176150 -16.108492 64.139752 46.381994 -79.963135 1.363630 30.008610 21.283494 51.651181 -77.073207
25.529887 91.731804 -126.927851 14.821884 -25.683332 30.458047 -57.356643 82.265032 177.067299 13.085146 -0.228842 -124.704392 2.660581 23.683474 -8.330698 47.321897 50.344604 -71.744041 -74.007538 64.002062 -238.176592 -22.336549 143.940991 -54.277194 -45.707650 -44.328846 -67.040438 355.083694 256.320307 279.866264 594.203618 282.843106 521.064203 9.937359 202.494714 82.985856 -24.429871 -28.410303 32.636799 -1.417449 -11.516717 29.033662 39.973163 22.097655 -13.958859 -23.699868 5.290605 -23.631835 -81.895259 5.696291 -51.731846 2.353176 17.926912 43.051871 -122.057939 165.240226 96.636781 -90.694756 13.505826 33.649569 36.505162 43.365534 -84.737533
23.901162 88.664530 -128.499954 8.212437 -21.732658 33.285861 -67.507397 89.249911 180.236862 16.551637 -0.483422 -119.829754 -0.908340 22.579359 -7.605402 43.102213 45.332000 -66.789155 -77.751697 61.339730 -242.586080 -26.422404 141.050578 -58.278466 -48.960688 -40.419468 -74.088831 351.540411 249.594455 272.996569 571.346909 279.645129 501.839024 10.919159 199.559713 85.931382 -19.864903 -31.540290 37.868649 0.469726 -23.578160 38.213238 43.008444 19.139993 -24.588912 -24.282410 -0.786668 -18.003221 -88.599411 1.026664 -53.032560 1.665937 6.981398 76.358291 -127.259005 198.999310 82.935340 -88.101524 37.504432 25.791143 35.808985 49.618309 -88.263126
22.546193 85.860156 -130.227545 6.050467 -12.495321 26.568403 -76.308321 84.950683 184.395136 17.167170 -1.216764 -115.324848 -7.295622 21.048678 -6.673523 41.861973 44.745911 -67.659417 -83.433841 57.016251 -238.276941 -25.069286 133.984297 -54.952318 -53.133257 -43.690316 -77.817452 342.536664 241.876041 277.690220 556.351747 276.336367 488.625395 5.350575 193.368010 78.754711 -24.180640 -26.974698 42.097837 1.446166 -34.970473 49.741010 43.245063 18.276782 -32.619214 -22.968010 -3.646304 -13.083983 -93.455081 -1.965995 -53.098860 -1.594086 -10.025312 108.972062 -132.821484 212.862121 74.529747 -93.286416 57.954394 24.065630 48.948923 50.644067 -93.054607
21.832957 83.103179 -131.760490 5.384315 -6.990754 11.893157 -84.281133 68.112094 183.385470 17.815317 -7.387673 -111.462984 -12.787148 18.794859 -5.818630 40.063458 40.607718 -64.372450 -90.093788 53.317085 -236.820554 -20.258662 125.647914 -48.190092 -58.606049 -40.054541 -85.334061 335.418487 239.830154 274.791570 542.774260 278.421050 471.222947 5.123393 195.080940 80.893181 -21.122382 -30.965776 42.693569 9.223090 -40.667097 63.712701 44.762679 19.371123 -35.721370 -21.423537 -5.766566 -6.315393 -98.293942 -4.899605 -54.343697 1.667000 -23.312684 140.303792 -136.417797 219.691983 70.763362 -99.151903 76.118306 25.325510 57.452901 53.319821 -93.132505
21.632855 79.671229 -132.870205 8.744441 -0.977056 6.728125 -82.300959 63.303033 182.677562 21.727177 -6.432915 -112.081055 -14.934588 16.915312 -5.587595 38.646453 42.341739 -62.039127 -94.528705 47.295747 -230.173304 -16.763120 116.722687 -46.420103 -65.602423 -34.994481 -75.463864 343.866065 239.193170 276.032424 542.407288 280.978765 468.962318 4.125629 199.652344 82.543990 -23.876482 -29.319878 47.300972 13.817725 -47.684501 77.311669 43.633386 22.042672 -37.974274 -20.223287 -7.511363 -0.766800 -102.684203 -7.842293 -57.032483 5.905064 -33.814405 173.118221 -143.493054 231.419349 72.045990 -102.926409 88.106312 30.947365 64.824376 39.051914 -93.493569
21.803996 76.805099 -133.862484 11.549736 7.268220 -3.472647 -78.889573 53.872349 180.594464 23.213685 -7.160140 -115.668079 -15.711493 17.763010 -5.640656 35.339040 42.374552 -59.250655 -98.058697 42.501525 -223.463531 -17.118018 108.370698 -48.536745 -66.318179 -37.767791 -92.956641 348.840902 241.668185 276.037806 530.067322 285.619988 456.275406 3.994411 202.067936 85.712344 -23.291932 -35.044321 44.863742 23.956933 -54.927142 90.759233 43.417061 23.092615 -36.940907 -19.242933 -8.497052 6.452832 -106.673853 -10.665552 -57.826349 15.382465 -43.602271 204.961765 -147.127875 237.064665 62.942174 -98.188867 103.177015 29.117609 53.725944 34.507693 -89.915841
22.021217 74.252056 -134.819334 17.551687 16.187627 -14.961229 -74.498827 46.299373 177.652974 20.696455 -8.949691 -119.893603 -15.578722 18.649347 -5.552015 33.368233 42.707165 -57.680367 -106.346448 37.241501 -213.375916 -14.692638 98.174093 -47.996187 -67.305442 -37.036342 -92.801008 353.530318 242.918929 282.181889 521.143871 286.952175 446.004441 -0.269256 201.414847 85.590200 -26.872152 -36.369852 42.197472 39.438991 -62.147024 109.338952 41.813230 25.229751 -31.792731 -18.162149 -11.358780 17.196352 -110.957120 -14.557973 -57.497482 27.463023 -55.636925 238.671753 -147.248251 235.955333 51.084921 -105.700237 118.257089 23.742429 57.969031 44.259090 -84.132426
22.185695 71.836733 -135.848120 26.949780 25.466862 -24.582322 -69.958342 37.737755 172.198262 20.530225 -9.498554 -126.655558 -14.671084 17.631879 -5.239753 29.979391 41.229310 -53.715760 -114.182383 29.081364 -205.087986 -13.263609 88.760480 -48.906951 -68.116787 -39.544856 -98.890163 356.259334 246.854265 285.632637 512.054747 281.326312 434.403282 -6.729612 201.111751 83.827772 -27.878839 -39.713448 36.339417 57.279022 -67.743776 125.677571 37.188536 25.490228 -28.428562 -15.244391 -14.655522 25.394746 -112.879859 -17.114863 -57.272164 48.416148 -65.546088 271.965511 -150.905516 237.706019 42.112583 -104.725303 130.278659 23.467043 48.120028 32.873977 -80.573317
22.123046 69.539226 -137.159899 36.190758 30.420047 -24.941230 -64.483584 36.067562 167.475364 17.192606 -11.023236 -134.894365 -11.826304 10.557527 -4.979140 22.497117 40.018939 -47.483151 -122.722831 16.822017 -195.899961 -9.187591 80.647247 -49.262746 -68.753524 -38.449139 -96.706306 358.999032 246.899891 288.636336 492.376043 283.589837 418.012713 -15.864451 200.016462 80.954093 -30.633313 -39.703504 32.368430 74.198025 -75.839258 141.950428 34.278455 28.446017 -23.156300 -13.228043 -14.542023 33.778916 -113.219982 -19.278170 -56.064269 70.492046 -74.733287 308.361977 -158.804658 241.531800 36.884961 -106.024098 139.114684 25.091485 49.895160 44.932980 -72.750223
